<mxfile host="app.diagrams.net" agent="Mozilla/5.0 (Windows NT 10.0; Win64; x64) AppleWebKit/537.36 (KHTML, like Gecko) Chrome/133.0.0.0 Safari/537.36" version="26.1.0">
  <diagram name="Page-1" id="TWjsZDbqVaWr7PeuM2WA">
    <mxGraphModel dx="1050" dy="569" grid="1" gridSize="10" guides="1" tooltips="1" connect="1" arrows="1" fold="1" page="1" pageScale="1" pageWidth="850" pageHeight="1100" math="0" shadow="0">
      <root>
        <mxCell id="0" />
        <mxCell id="1" parent="0" />
        <mxCell id="xksThTKgKxYP_uKolZ1T-3" value="" style="edgeStyle=orthogonalEdgeStyle;rounded=0;orthogonalLoop=1;jettySize=auto;html=1;" edge="1" parent="1" source="xksThTKgKxYP_uKolZ1T-1" target="xksThTKgKxYP_uKolZ1T-2">
          <mxGeometry relative="1" as="geometry" />
        </mxCell>
        <mxCell id="xksThTKgKxYP_uKolZ1T-1" value="Inicio" style="ellipse;whiteSpace=wrap;html=1;" vertex="1" parent="1">
          <mxGeometry x="365" y="20" width="120" height="80" as="geometry" />
        </mxCell>
        <mxCell id="xksThTKgKxYP_uKolZ1T-5" value="" style="edgeStyle=orthogonalEdgeStyle;rounded=0;orthogonalLoop=1;jettySize=auto;html=1;" edge="1" parent="1" source="xksThTKgKxYP_uKolZ1T-2" target="xksThTKgKxYP_uKolZ1T-4">
          <mxGeometry relative="1" as="geometry" />
        </mxCell>
        <mxCell id="xksThTKgKxYP_uKolZ1T-2" value="Encender G" style="rounded=0;whiteSpace=wrap;html=1;" vertex="1" parent="1">
          <mxGeometry x="365" y="140" width="120" height="60" as="geometry" />
        </mxCell>
        <mxCell id="xksThTKgKxYP_uKolZ1T-8" value="" style="edgeStyle=orthogonalEdgeStyle;rounded=0;orthogonalLoop=1;jettySize=auto;html=1;" edge="1" parent="1" source="xksThTKgKxYP_uKolZ1T-4" target="xksThTKgKxYP_uKolZ1T-6">
          <mxGeometry relative="1" as="geometry" />
        </mxCell>
        <mxCell id="xksThTKgKxYP_uKolZ1T-4" value="Encender E" style="rounded=0;whiteSpace=wrap;html=1;" vertex="1" parent="1">
          <mxGeometry x="365" y="240" width="120" height="60" as="geometry" />
        </mxCell>
        <mxCell id="xksThTKgKxYP_uKolZ1T-9" value="" style="edgeStyle=orthogonalEdgeStyle;rounded=0;orthogonalLoop=1;jettySize=auto;html=1;" edge="1" parent="1" source="xksThTKgKxYP_uKolZ1T-6" target="xksThTKgKxYP_uKolZ1T-7">
          <mxGeometry relative="1" as="geometry" />
        </mxCell>
        <mxCell id="xksThTKgKxYP_uKolZ1T-6" value="Encender D" style="rounded=0;whiteSpace=wrap;html=1;" vertex="1" parent="1">
          <mxGeometry x="365" y="340" width="120" height="60" as="geometry" />
        </mxCell>
        <mxCell id="xksThTKgKxYP_uKolZ1T-7" value="FIN" style="ellipse;whiteSpace=wrap;html=1;" vertex="1" parent="1">
          <mxGeometry x="365" y="460" width="120" height="80" as="geometry" />
        </mxCell>
      </root>
    </mxGraphModel>
  </diagram>
</mxfile>
